<?xml version="1.0" encoding="UTF-8" standalone="no"?>
<!DOCTYPE svg PUBLIC "-//W3C//DTD SVG 1.1//EN"
 "http://www.w3.org/Graphics/SVG/1.1/DTD/svg11.dtd">
<!-- Generated by graphviz version 2.43.0 (0)
 -->
<!-- Title: %3 Pages: 1 -->
<svg width="1063pt" height="322pt"
 viewBox="0.00 0.00 1062.99 322.48" xmlns="http://www.w3.org/2000/svg" xmlns:xlink="http://www.w3.org/1999/xlink">
<g id="graph0" class="graph" transform="scale(1 1) rotate(0) translate(4 318.48)">
<title>%3</title>
<polygon fill="white" stroke="transparent" points="-4,4 -4,-318.48 1058.99,-318.48 1058.99,4 -4,4"/>
<!-- Coinage -->
<g id="node1" class="node">
<title>Coinage</title>
<polygon fill="lightgray" stroke="black" points="54,-294.48 0,-294.48 0,-276.48 54,-276.48 54,-294.48"/>
<text text-anchor="middle" x="27" y="-283.28" font-family="Times,serif" font-size="9.00">Coinage</text>
</g>
<!-- Cash -->
<g id="node2" class="node">
<title>Cash</title>
<polygon fill="lightgray" stroke="black" points="111.5,-294.48 72.5,-294.48 72.5,-276.48 111.5,-276.48 111.5,-294.48"/>
<text text-anchor="middle" x="92" y="-283.28" font-family="Times,serif" font-size="9.00">Cash</text>
</g>
<!-- 3837 -->
<g id="node14" class="node">
<title>3837</title>
<ellipse fill="white" stroke="black" cx="92" cy="-191.5" rx="28.98" ry="28.98"/>
<text text-anchor="middle" x="92" y="-189.3" font-family="Times,serif" font-size="9.00">3837</text>
</g>
<!-- Cash&#45;&gt;3837 -->
<g id="edge3" class="edge">
<title>Cash&#45;&gt;3837</title>
<path fill="none" stroke="red" stroke-width="0.1" d="M92,-276.32C92,-266.05 92,-247.71 92,-230.8"/>
<polygon fill="red" stroke="red" stroke-width="0.1" points="95.5,-230.54 92,-220.54 88.5,-230.54 95.5,-230.54"/>
</g>
<!-- Night -->
<g id="node3" class="node">
<title>Night</title>
<polygon fill="lightgray" stroke="black" points="289,-294.48 245,-294.48 245,-276.48 289,-276.48 289,-294.48"/>
<text text-anchor="middle" x="267" y="-283.28" font-family="Times,serif" font-size="9.00">Night</text>
</g>
<!-- Opponent Coinage -->
<g id="node4" class="node">
<title>Opponent Coinage</title>
<polygon fill="lightgray" stroke="black" points="410.5,-294.48 307.5,-294.48 307.5,-276.48 410.5,-276.48 410.5,-294.48"/>
<text text-anchor="middle" x="359" y="-283.28" font-family="Times,serif" font-size="9.00">Opponent Coinage</text>
</g>
<!-- Opponent Cash -->
<g id="node5" class="node">
<title>Opponent Cash</title>
<polygon fill="lightgray" stroke="black" points="517,-294.48 429,-294.48 429,-276.48 517,-276.48 517,-294.48"/>
<text text-anchor="middle" x="473" y="-283.28" font-family="Times,serif" font-size="9.00">Opponent Cash</text>
</g>
<!-- Coinage Commit -->
<g id="node6" class="node">
<title>Coinage Commit</title>
<polygon fill="lightgray" stroke="black" points="231,-200.5 139,-200.5 139,-182.5 231,-182.5 231,-200.5"/>
<text text-anchor="middle" x="185" y="-189.3" font-family="Times,serif" font-size="9.00">Coinage Commit</text>
</g>
<!-- 4569 -->
<g id="node16" class="node">
<title>4569</title>
<ellipse fill="white" stroke="black" cx="205" cy="-97.52" rx="28.98" ry="28.98"/>
<text text-anchor="middle" x="205" y="-95.32" font-family="Times,serif" font-size="9.00">4569</text>
</g>
<!-- Coinage Commit&#45;&gt;4569 -->
<g id="edge5" class="edge">
<title>Coinage Commit&#45;&gt;4569</title>
<path fill="none" stroke="green" stroke-width="0.29" d="M186.77,-182.34C189.04,-171.9 193.13,-153.12 196.85,-135.98"/>
<polygon fill="green" stroke="green" stroke-width="0.29" points="200.29,-136.67 198.99,-126.15 193.45,-135.18 200.29,-136.67"/>
</g>
<!-- Cash Commit -->
<g id="node7" class="node">
<title>Cash Commit</title>
<polygon fill="lightgray" stroke="black" points="612.5,-294.48 535.5,-294.48 535.5,-276.48 612.5,-276.48 612.5,-294.48"/>
<text text-anchor="middle" x="574" y="-283.28" font-family="Times,serif" font-size="9.00">Cash Commit</text>
</g>
<!-- Opponent Coinage Commit -->
<g id="node8" class="node">
<title>Opponent Coinage Commit</title>
<polygon fill="lightgray" stroke="black" points="771.5,-294.48 630.5,-294.48 630.5,-276.48 771.5,-276.48 771.5,-294.48"/>
<text text-anchor="middle" x="701" y="-283.28" font-family="Times,serif" font-size="9.00">Opponent Coinage Commit</text>
</g>
<!-- Opponent Coin Commit -->
<g id="node9" class="node">
<title>Opponent Coin Commit</title>
<polygon fill="lightgray" stroke="black" points="914.5,-294.48 789.5,-294.48 789.5,-276.48 914.5,-276.48 914.5,-294.48"/>
<text text-anchor="middle" x="852" y="-283.28" font-family="Times,serif" font-size="9.00">Opponent Coin Commit</text>
</g>
<!-- Wins -->
<g id="node10" class="node">
<title>Wins</title>
<polygon fill="lightgray" stroke="black" points="226.5,-294.48 187.5,-294.48 187.5,-276.48 226.5,-276.48 226.5,-294.48"/>
<text text-anchor="middle" x="207" y="-283.28" font-family="Times,serif" font-size="9.00">Wins</text>
</g>
<!-- 0 -->
<g id="node12" class="node">
<title>0</title>
<ellipse fill="lightblue" stroke="black" cx="265" cy="-191.5" rx="16.03" ry="16.03"/>
<text text-anchor="middle" x="265" y="-189.3" font-family="Times,serif" font-size="9.00">0</text>
</g>
<!-- Wins&#45;&gt;0 -->
<g id="edge1" class="edge">
<title>Wins&#45;&gt;0</title>
<path fill="none" stroke="green" stroke-width="0.41" d="M212.15,-276.32C220.85,-262.52 238.75,-234.13 251.3,-214.23"/>
<polygon fill="green" stroke="green" stroke-width="0.41" points="254.26,-216.1 256.63,-205.77 248.34,-212.36 254.26,-216.1"/>
</g>
<!-- Wins&#45;&gt;3837 -->
<g id="edge4" class="edge">
<title>Wins&#45;&gt;3837</title>
<path fill="none" stroke="green" stroke-width="0.19" stroke-dasharray="1,5" d="M196.79,-276.32C180.3,-263.13 147.14,-236.61 122.52,-216.91"/>
<polygon fill="green" stroke="green" stroke-width="0.19" points="124.53,-214.04 114.53,-210.52 120.16,-219.5 124.53,-214.04"/>
</g>
<!-- Losses -->
<g id="node11" class="node">
<title>Losses</title>
<polygon fill="lightgray" stroke="black" points="979.5,-294.48 932.5,-294.48 932.5,-276.48 979.5,-276.48 979.5,-294.48"/>
<text text-anchor="middle" x="956" y="-283.28" font-family="Times,serif" font-size="9.00">Losses</text>
</g>
<!-- 0&#45;&gt;4569 -->
<g id="edge6" class="edge">
<title>0&#45;&gt;4569</title>
<path fill="none" stroke="green" stroke-width="0.13" d="M256.4,-177.32C248.53,-165.25 236.55,-146.89 226.14,-130.92"/>
<polygon fill="green" stroke="green" stroke-width="0.13" points="228.94,-128.82 220.55,-122.36 223.08,-132.64 228.94,-128.82"/>
</g>
<!-- 1 -->
<g id="node13" class="node">
<title>1</title>
<ellipse fill="lightblue" stroke="black" cx="129" cy="-16.26" rx="16.03" ry="16.03"/>
<text text-anchor="middle" x="129" y="-14.06" font-family="Times,serif" font-size="9.00">1</text>
</g>
<!-- 3837&#45;&gt;1 -->
<g id="edge2" class="edge">
<title>3837&#45;&gt;1</title>
<path fill="none" stroke="red" stroke-width="0.13" stroke-dasharray="1,5" d="M86.78,-162.59C83.21,-137.34 80.77,-99.49 91,-68.53 94.99,-56.45 103.05,-44.89 110.72,-35.81"/>
<polygon fill="red" stroke="red" stroke-width="0.13" points="113.45,-38.01 117.53,-28.24 108.24,-33.33 113.45,-38.01"/>
</g>
<!-- 4624 -->
<g id="node15" class="node">
<title>4624</title>
<ellipse fill="white" stroke="black" cx="129" cy="-97.52" rx="28.98" ry="28.98"/>
<text text-anchor="middle" x="129" y="-95.32" font-family="Times,serif" font-size="9.00">4624</text>
</g>
<!-- 3837&#45;&gt;4624 -->
<g id="edge7" class="edge">
<title>3837&#45;&gt;4624</title>
<path fill="none" stroke="green" stroke-width="0.11" d="M102.5,-164.39C106.29,-154.97 110.63,-144.17 114.69,-134.08"/>
<polygon fill="green" stroke="green" stroke-width="0.11" points="117.99,-135.28 118.47,-124.7 111.49,-132.67 117.99,-135.28"/>
</g>
<!-- 4624&#45;&gt;1 -->
<g id="edge8" class="edge">
<title>4624&#45;&gt;1</title>
<path fill="none" stroke="red" stroke-width="0.15" d="M129,-68.35C129,-60.06 129,-51.04 129,-42.91"/>
<polygon fill="red" stroke="red" stroke-width="0.15" points="132.5,-42.89 129,-32.89 125.5,-42.89 132.5,-42.89"/>
</g>
<!-- 4569&#45;&gt;1 -->
<g id="edge9" class="edge">
<title>4569&#45;&gt;1</title>
<path fill="none" stroke="red" stroke-width="0.21" d="M185.43,-76.11C173.59,-63.77 158.61,-48.15 147.06,-36.1"/>
<polygon fill="red" stroke="red" stroke-width="0.21" points="149.48,-33.57 140.04,-28.77 144.43,-38.41 149.48,-33.57"/>
</g>
<!-- 3741 -->
<g id="node17" class="node">
<title>3741</title>
<ellipse fill="white" stroke="black" cx="1026" cy="-285.48" rx="28.98" ry="28.98"/>
<text text-anchor="middle" x="1026" y="-283.28" font-family="Times,serif" font-size="9.00">3741</text>
</g>
</g>
</svg>
