<?xml version="1.0" encoding="UTF-8" standalone="no"?>
<!DOCTYPE svg PUBLIC "-//W3C//DTD SVG 1.1//EN"
 "http://www.w3.org/Graphics/SVG/1.1/DTD/svg11.dtd">
<!-- Generated by graphviz version 2.43.0 (0)
 -->
<!-- Title: %3 Pages: 1 -->
<svg width="1040pt" height="95pt"
 viewBox="0.00 0.00 1039.50 94.53" xmlns="http://www.w3.org/2000/svg" xmlns:xlink="http://www.w3.org/1999/xlink">
<g id="graph0" class="graph" transform="scale(1 1) rotate(0) translate(4 90.53)">
<title>%3</title>
<polygon fill="white" stroke="transparent" points="-4,4 -4,-90.53 1035.5,-90.53 1035.5,4 -4,4"/>
<!-- Coinage -->
<g id="node1" class="node">
<title>Coinage</title>
<polygon fill="lightgray" stroke="black" points="54,-86.53 0,-86.53 0,-68.53 54,-68.53 54,-86.53"/>
<text text-anchor="middle" x="27" y="-75.33" font-family="Times,serif" font-size="9.00">Coinage</text>
</g>
<!-- Cash -->
<g id="node2" class="node">
<title>Cash</title>
<polygon fill="lightgray" stroke="black" points="111.5,-86.53 72.5,-86.53 72.5,-68.53 111.5,-68.53 111.5,-86.53"/>
<text text-anchor="middle" x="92" y="-75.33" font-family="Times,serif" font-size="9.00">Cash</text>
</g>
<!-- 0 -->
<g id="node12" class="node">
<title>0</title>
<ellipse fill="lightblue" stroke="black" cx="92" cy="-16.26" rx="16.03" ry="16.03"/>
<text text-anchor="middle" x="92" y="-14.06" font-family="Times,serif" font-size="9.00">0</text>
</g>
<!-- Cash&#45;&gt;0 -->
<g id="edge1" class="edge">
<title>Cash&#45;&gt;0</title>
<path fill="none" stroke="green" stroke-width="0.16" d="M92,-68.29C92,-61.7 92,-52.1 92,-43"/>
<polygon fill="green" stroke="green" stroke-width="0.16" points="95.5,-42.76 92,-32.76 88.5,-42.76 95.5,-42.76"/>
</g>
<!-- Night -->
<g id="node3" class="node">
<title>Night</title>
<polygon fill="lightgray" stroke="black" points="174,-86.53 130,-86.53 130,-68.53 174,-68.53 174,-86.53"/>
<text text-anchor="middle" x="152" y="-75.33" font-family="Times,serif" font-size="9.00">Night</text>
</g>
<!-- Opponent Coinage -->
<g id="node4" class="node">
<title>Opponent Coinage</title>
<polygon fill="lightgray" stroke="black" points="295.5,-86.53 192.5,-86.53 192.5,-68.53 295.5,-68.53 295.5,-86.53"/>
<text text-anchor="middle" x="244" y="-75.33" font-family="Times,serif" font-size="9.00">Opponent Coinage</text>
</g>
<!-- Opponent Cash -->
<g id="node5" class="node">
<title>Opponent Cash</title>
<polygon fill="lightgray" stroke="black" points="402,-86.53 314,-86.53 314,-68.53 402,-68.53 402,-86.53"/>
<text text-anchor="middle" x="358" y="-75.33" font-family="Times,serif" font-size="9.00">Opponent Cash</text>
</g>
<!-- Coinage Commit -->
<g id="node6" class="node">
<title>Coinage Commit</title>
<polygon fill="lightgray" stroke="black" points="512,-86.53 420,-86.53 420,-68.53 512,-68.53 512,-86.53"/>
<text text-anchor="middle" x="466" y="-75.33" font-family="Times,serif" font-size="9.00">Coinage Commit</text>
</g>
<!-- Cash Commit -->
<g id="node7" class="node">
<title>Cash Commit</title>
<polygon fill="lightgray" stroke="black" points="607.5,-86.53 530.5,-86.53 530.5,-68.53 607.5,-68.53 607.5,-86.53"/>
<text text-anchor="middle" x="569" y="-75.33" font-family="Times,serif" font-size="9.00">Cash Commit</text>
</g>
<!-- Opponent Coinage Commit -->
<g id="node8" class="node">
<title>Opponent Coinage Commit</title>
<polygon fill="lightgray" stroke="black" points="766.5,-86.53 625.5,-86.53 625.5,-68.53 766.5,-68.53 766.5,-86.53"/>
<text text-anchor="middle" x="696" y="-75.33" font-family="Times,serif" font-size="9.00">Opponent Coinage Commit</text>
</g>
<!-- Opponent Coin Commit -->
<g id="node9" class="node">
<title>Opponent Coin Commit</title>
<polygon fill="lightgray" stroke="black" points="909.5,-86.53 784.5,-86.53 784.5,-68.53 909.5,-68.53 909.5,-86.53"/>
<text text-anchor="middle" x="847" y="-75.33" font-family="Times,serif" font-size="9.00">Opponent Coin Commit</text>
</g>
<!-- 1 -->
<g id="node13" class="node">
<title>1</title>
<ellipse fill="lightblue" stroke="black" cx="847" cy="-16.26" rx="16.03" ry="16.03"/>
<text text-anchor="middle" x="847" y="-14.06" font-family="Times,serif" font-size="9.00">1</text>
</g>
<!-- Opponent Coin Commit&#45;&gt;1 -->
<g id="edge2" class="edge">
<title>Opponent Coin Commit&#45;&gt;1</title>
<path fill="none" stroke="green" stroke-width="0.18" stroke-dasharray="1,5" d="M847,-68.29C847,-61.7 847,-52.1 847,-43"/>
<polygon fill="green" stroke="green" stroke-width="0.18" points="850.5,-42.76 847,-32.76 843.5,-42.76 850.5,-42.76"/>
</g>
<!-- Wins -->
<g id="node10" class="node">
<title>Wins</title>
<polygon fill="lightgray" stroke="black" points="966.5,-86.53 927.5,-86.53 927.5,-68.53 966.5,-68.53 966.5,-86.53"/>
<text text-anchor="middle" x="947" y="-75.33" font-family="Times,serif" font-size="9.00">Wins</text>
</g>
<!-- Losses -->
<g id="node11" class="node">
<title>Losses</title>
<polygon fill="lightgray" stroke="black" points="1031.5,-86.53 984.5,-86.53 984.5,-68.53 1031.5,-68.53 1031.5,-86.53"/>
<text text-anchor="middle" x="1008" y="-75.33" font-family="Times,serif" font-size="9.00">Losses</text>
</g>
</g>
</svg>
