<?xml version="1.0" encoding="UTF-8" standalone="no"?>
<!DOCTYPE svg PUBLIC "-//W3C//DTD SVG 1.1//EN"
 "http://www.w3.org/Graphics/SVG/1.1/DTD/svg11.dtd">
<!-- Generated by graphviz version 2.43.0 (0)
 -->
<!-- Title: %3 Pages: 1 -->
<svg width="1820pt" height="894pt"
 viewBox="0.00 0.00 1820.23 894.21" xmlns="http://www.w3.org/2000/svg" xmlns:xlink="http://www.w3.org/1999/xlink">
<g id="graph0" class="graph" transform="scale(1 1) rotate(0) translate(4 890.21)">
<title>%3</title>
<polygon fill="white" stroke="transparent" points="-4,4 -4,-890.21 1816.23,-890.21 1816.23,4 -4,4"/>
<!-- Coinage -->
<g id="node1" class="node">
<title>Coinage</title>
<polygon fill="lightgray" stroke="black" points="54,-861.98 0,-861.98 0,-843.98 54,-843.98 54,-861.98"/>
<text text-anchor="middle" x="27" y="-850.78" font-family="Times,serif" font-size="9.00">Coinage</text>
</g>
<!-- Cash -->
<g id="node2" class="node">
<title>Cash</title>
<polygon fill="lightgray" stroke="black" points="111.5,-861.98 72.5,-861.98 72.5,-843.98 111.5,-843.98 111.5,-861.98"/>
<text text-anchor="middle" x="92" y="-850.78" font-family="Times,serif" font-size="9.00">Cash</text>
</g>
<!-- Night -->
<g id="node3" class="node">
<title>Night</title>
<polygon fill="lightgray" stroke="black" points="174,-861.98 130,-861.98 130,-843.98 174,-843.98 174,-861.98"/>
<text text-anchor="middle" x="152" y="-850.78" font-family="Times,serif" font-size="9.00">Night</text>
</g>
<!-- Opponent Coinage -->
<g id="node4" class="node">
<title>Opponent Coinage</title>
<polygon fill="lightgray" stroke="black" points="533.5,-452.11 430.5,-452.11 430.5,-434.11 533.5,-434.11 533.5,-452.11"/>
<text text-anchor="middle" x="482" y="-440.91" font-family="Times,serif" font-size="9.00">Opponent Coinage</text>
</g>
<!-- 17573 -->
<g id="node24" class="node">
<title>17573</title>
<ellipse fill="white" stroke="black" cx="323" cy="-340.64" rx="33.47" ry="33.47"/>
<text text-anchor="middle" x="323" y="-338.44" font-family="Times,serif" font-size="9.00">17573</text>
</g>
<!-- Opponent Coinage&#45;&gt;17573 -->
<g id="edge41" class="edge">
<title>Opponent Coinage&#45;&gt;17573</title>
<path fill="none" stroke="red" stroke-width="0.6" d="M466.86,-434.08C444.19,-421.88 400.34,-397.6 365,-373.87 362.33,-372.08 359.6,-370.17 356.89,-368.22"/>
<polygon fill="red" stroke="red" stroke-width="0.6" points="358.96,-365.4 348.84,-362.28 354.81,-371.03 358.96,-365.4"/>
</g>
<!-- 19525 -->
<g id="node37" class="node">
<title>19525</title>
<ellipse fill="white" stroke="black" cx="659" cy="-135.7" rx="33.47" ry="33.47"/>
<text text-anchor="middle" x="659" y="-133.5" font-family="Times,serif" font-size="9.00">19525</text>
</g>
<!-- Opponent Coinage&#45;&gt;19525 -->
<g id="edge33" class="edge">
<title>Opponent Coinage&#45;&gt;19525</title>
<path fill="none" stroke="green" stroke-width="0.3" d="M533.91,-442.25C585.7,-439.27 662.88,-425.67 701,-373.87 745.5,-313.4 721.45,-277.18 701,-204.94 697.63,-193.02 691.52,-181.13 684.98,-170.7"/>
<polygon fill="green" stroke="green" stroke-width="0.3" points="687.87,-168.73 679.44,-162.31 682.03,-172.58 687.87,-168.73"/>
</g>
<!-- 22853 -->
<g id="node42" class="node">
<title>22853</title>
<ellipse fill="white" stroke="black" cx="407" cy="-340.64" rx="33.47" ry="33.47"/>
<text text-anchor="middle" x="407" y="-338.44" font-family="Times,serif" font-size="9.00">22853</text>
</g>
<!-- Opponent Coinage&#45;&gt;22853 -->
<g id="edge36" class="edge">
<title>Opponent Coinage&#45;&gt;22853</title>
<path fill="none" stroke="green" stroke-width="0.26" d="M475.86,-433.88C466.51,-421.36 448.17,-396.79 432.76,-376.15"/>
<polygon fill="green" stroke="green" stroke-width="0.26" points="435.38,-373.81 426.6,-367.89 429.77,-377.99 435.38,-373.81"/>
</g>
<!-- 17102 -->
<g id="node45" class="node">
<title>17102</title>
<ellipse fill="white" stroke="black" cx="491" cy="-340.64" rx="33.47" ry="33.47"/>
<text text-anchor="middle" x="491" y="-338.44" font-family="Times,serif" font-size="9.00">17102</text>
</g>
<!-- Opponent Coinage&#45;&gt;17102 -->
<g id="edge31" class="edge">
<title>Opponent Coinage&#45;&gt;17102</title>
<path fill="none" stroke="red" stroke-width="0.25" d="M482.74,-433.88C483.71,-422.97 485.51,-402.9 487.18,-384.26"/>
<polygon fill="red" stroke="red" stroke-width="0.25" points="490.68,-384.4 488.09,-374.12 483.71,-383.77 490.68,-384.4"/>
</g>
<!-- Opponent Cash -->
<g id="node5" class="node">
<title>Opponent Cash</title>
<polygon fill="lightgray" stroke="black" points="426,-861.98 338,-861.98 338,-843.98 426,-843.98 426,-861.98"/>
<text text-anchor="middle" x="382" y="-850.78" font-family="Times,serif" font-size="9.00">Opponent Cash</text>
</g>
<!-- 18470 -->
<g id="node25" class="node">
<title>18470</title>
<ellipse fill="white" stroke="black" cx="382" cy="-750.51" rx="33.47" ry="33.47"/>
<text text-anchor="middle" x="382" y="-748.31" font-family="Times,serif" font-size="9.00">18470</text>
</g>
<!-- Opponent Cash&#45;&gt;18470 -->
<g id="edge10" class="edge">
<title>Opponent Cash&#45;&gt;18470</title>
<path fill="none" stroke="green" stroke-width="0.83" d="M382,-843.76C382,-832.84 382,-812.77 382,-794.14"/>
<polygon fill="green" stroke="green" stroke-width="0.83" points="385.5,-793.99 382,-783.99 378.5,-793.99 385.5,-793.99"/>
</g>
<!-- Coinage Commit -->
<g id="node6" class="node">
<title>Coinage Commit</title>
<polygon fill="lightgray" stroke="black" points="536,-861.98 444,-861.98 444,-843.98 536,-843.98 536,-861.98"/>
<text text-anchor="middle" x="490" y="-850.78" font-family="Times,serif" font-size="9.00">Coinage Commit</text>
</g>
<!-- Cash Commit -->
<g id="node7" class="node">
<title>Cash Commit</title>
<polygon fill="lightgray" stroke="black" points="269.5,-861.98 192.5,-861.98 192.5,-843.98 269.5,-843.98 269.5,-861.98"/>
<text text-anchor="middle" x="231" y="-850.78" font-family="Times,serif" font-size="9.00">Cash Commit</text>
</g>
<!-- 1 -->
<g id="node13" class="node">
<title>1</title>
<ellipse fill="lightblue" stroke="black" cx="315" cy="-750.51" rx="16.03" ry="16.03"/>
<text text-anchor="middle" x="315" y="-748.31" font-family="Times,serif" font-size="9.00">1</text>
</g>
<!-- Cash Commit&#45;&gt;1 -->
<g id="edge1" class="edge">
<title>Cash Commit&#45;&gt;1</title>
<path fill="none" stroke="red" stroke-width="0.3" d="M237.87,-843.76C251.01,-828.05 280,-793.37 298.46,-771.3"/>
<polygon fill="red" stroke="red" stroke-width="0.3" points="301.23,-773.44 304.96,-763.52 295.86,-768.95 301.23,-773.44"/>
</g>
<!-- 17029 -->
<g id="node15" class="node">
<title>17029</title>
<ellipse fill="white" stroke="black" cx="181" cy="-750.51" rx="33.47" ry="33.47"/>
<text text-anchor="middle" x="181" y="-748.31" font-family="Times,serif" font-size="9.00">17029</text>
</g>
<!-- Cash Commit&#45;&gt;17029 -->
<g id="edge14" class="edge">
<title>Cash Commit&#45;&gt;17029</title>
<path fill="none" stroke="red" stroke-width="0.19" d="M226.91,-843.76C221.07,-832.02 209.96,-809.71 200.14,-789.97"/>
<polygon fill="red" stroke="red" stroke-width="0.19" points="203.18,-788.23 195.59,-780.83 196.92,-791.35 203.18,-788.23"/>
</g>
<!-- Opponent Coinage Commit -->
<g id="node8" class="node">
<title>Opponent Coinage Commit</title>
<polygon fill="lightgray" stroke="black" points="695.5,-861.98 554.5,-861.98 554.5,-843.98 695.5,-843.98 695.5,-861.98"/>
<text text-anchor="middle" x="625" y="-850.78" font-family="Times,serif" font-size="9.00">Opponent Coinage Commit</text>
</g>
<!-- Opponent Coin Commit -->
<g id="node9" class="node">
<title>Opponent Coin Commit</title>
<polygon fill="lightgray" stroke="black" points="838.5,-861.98 713.5,-861.98 713.5,-843.98 838.5,-843.98 838.5,-861.98"/>
<text text-anchor="middle" x="776" y="-850.78" font-family="Times,serif" font-size="9.00">Opponent Coin Commit</text>
</g>
<!-- Wins -->
<g id="node10" class="node">
<title>Wins</title>
<polygon fill="lightgray" stroke="black" points="895.5,-861.98 856.5,-861.98 856.5,-843.98 895.5,-843.98 895.5,-861.98"/>
<text text-anchor="middle" x="876" y="-850.78" font-family="Times,serif" font-size="9.00">Wins</text>
</g>
<!-- Losses -->
<g id="node11" class="node">
<title>Losses</title>
<polygon fill="lightgray" stroke="black" points="279.5,-759.51 232.5,-759.51 232.5,-741.51 279.5,-741.51 279.5,-759.51"/>
<text text-anchor="middle" x="256" y="-748.31" font-family="Times,serif" font-size="9.00">Losses</text>
</g>
<!-- 14503 -->
<g id="node26" class="node">
<title>14503</title>
<ellipse fill="white" stroke="black" cx="224" cy="-545.57" rx="33.47" ry="33.47"/>
<text text-anchor="middle" x="224" y="-543.37" font-family="Times,serif" font-size="9.00">14503</text>
</g>
<!-- Losses&#45;&gt;14503 -->
<g id="edge4" class="edge">
<title>Losses&#45;&gt;14503</title>
<path fill="none" stroke="green" stroke-width="0.7" stroke-dasharray="1,5" d="M254.86,-741.3C251.92,-720.25 243.76,-662.65 236,-614.81 234.62,-606.27 233.06,-597.15 231.55,-588.45"/>
<polygon fill="green" stroke="green" stroke-width="0.7" points="234.97,-587.72 229.79,-578.48 228.08,-588.94 234.97,-587.72"/>
</g>
<!-- 21833 -->
<g id="node40" class="node">
<title>21833</title>
<ellipse fill="white" stroke="black" cx="194" cy="-648.04" rx="33.47" ry="33.47"/>
<text text-anchor="middle" x="194" y="-645.84" font-family="Times,serif" font-size="9.00">21833</text>
</g>
<!-- Losses&#45;&gt;21833 -->
<g id="edge17" class="edge">
<title>Losses&#45;&gt;21833</title>
<path fill="none" stroke="green" stroke-width="0.67" stroke-dasharray="1,5" d="M250.93,-741.29C243.42,-729.12 228.89,-705.58 216.39,-685.33"/>
<polygon fill="green" stroke="green" stroke-width="0.67" points="219.23,-683.27 211,-676.6 213.28,-686.95 219.23,-683.27"/>
</g>
<!-- 0 -->
<g id="node12" class="node">
<title>0</title>
<ellipse fill="lightblue" stroke="black" cx="249" cy="-238.17" rx="16.03" ry="16.03"/>
<text text-anchor="middle" x="249" y="-235.97" font-family="Times,serif" font-size="9.00">0</text>
</g>
<!-- 21255 -->
<g id="node16" class="node">
<title>21255</title>
<ellipse fill="white" stroke="black" cx="316" cy="-648.04" rx="33.47" ry="33.47"/>
<text text-anchor="middle" x="316" y="-645.84" font-family="Times,serif" font-size="9.00">21255</text>
</g>
<!-- 1&#45;&gt;21255 -->
<g id="edge15" class="edge">
<title>1&#45;&gt;21255</title>
<path fill="none" stroke="red" stroke-width="0.11" d="M315.16,-733.81C315.27,-722.51 315.43,-706.69 315.57,-691.78"/>
<polygon fill="red" stroke="red" stroke-width="0.11" points="319.08,-691.7 315.68,-681.66 312.08,-691.63 319.08,-691.7"/>
</g>
<!-- 21633 -->
<g id="node14" class="node">
<title>21633</title>
<ellipse fill="white" stroke="black" cx="182" cy="-33.23" rx="33.47" ry="33.47"/>
<text text-anchor="middle" x="182" y="-31.03" font-family="Times,serif" font-size="9.00">21633</text>
</g>
<!-- 17029&#45;&gt;21833 -->
<g id="edge27" class="edge">
<title>17029&#45;&gt;21833</title>
<path fill="none" stroke="red" stroke-width="0.11" d="M185.15,-717.45C186.23,-709.11 187.41,-700 188.54,-691.23"/>
<polygon fill="red" stroke="red" stroke-width="0.11" points="192.03,-691.51 189.85,-681.15 185.09,-690.62 192.03,-691.51"/>
</g>
<!-- 20491 -->
<g id="node17" class="node">
<title>20491</title>
<ellipse fill="white" stroke="black" cx="947" cy="-852.98" rx="33.47" ry="33.47"/>
<text text-anchor="middle" x="947" y="-850.78" font-family="Times,serif" font-size="9.00">20491</text>
</g>
<!-- 22926 -->
<g id="node18" class="node">
<title>22926</title>
<ellipse fill="white" stroke="black" cx="163" cy="-443.11" rx="33.47" ry="33.47"/>
<text text-anchor="middle" x="163" y="-440.91" font-family="Times,serif" font-size="9.00">22926</text>
</g>
<!-- 15900 -->
<g id="node22" class="node">
<title>15900</title>
<ellipse fill="white" stroke="black" cx="215" cy="-340.64" rx="33.47" ry="33.47"/>
<text text-anchor="middle" x="215" y="-338.44" font-family="Times,serif" font-size="9.00">15900</text>
</g>
<!-- 22926&#45;&gt;15900 -->
<g id="edge39" class="edge">
<title>22926&#45;&gt;15900</title>
<path fill="none" stroke="red" stroke-width="0.1" d="M177.9,-413.32C183.34,-402.81 189.58,-390.76 195.37,-379.57"/>
<polygon fill="red" stroke="red" stroke-width="0.1" points="198.61,-380.92 200.1,-370.43 192.39,-377.7 198.61,-380.92"/>
</g>
<!-- 19093 -->
<g id="node19" class="node">
<title>19093</title>
<ellipse fill="white" stroke="black" cx="1031" cy="-852.98" rx="33.47" ry="33.47"/>
<text text-anchor="middle" x="1031" y="-850.78" font-family="Times,serif" font-size="9.00">19093</text>
</g>
<!-- 19786 -->
<g id="node41" class="node">
<title>19786</title>
<ellipse fill="white" stroke="black" cx="1031" cy="-750.51" rx="33.47" ry="33.47"/>
<text text-anchor="middle" x="1031" y="-748.31" font-family="Times,serif" font-size="9.00">19786</text>
</g>
<!-- 19093&#45;&gt;19786 -->
<g id="edge30" class="edge">
<title>19093&#45;&gt;19786</title>
<path fill="none" stroke="red" stroke-width="0.21" d="M1031,-819.64C1031,-811.48 1031,-802.6 1031,-794.03"/>
<polygon fill="red" stroke="red" stroke-width="0.21" points="1034.5,-793.79 1031,-783.79 1027.5,-793.79 1034.5,-793.79"/>
</g>
<!-- 21783 -->
<g id="node20" class="node">
<title>21783</title>
<ellipse fill="white" stroke="black" cx="1115" cy="-750.51" rx="33.47" ry="33.47"/>
<text text-anchor="middle" x="1115" y="-748.31" font-family="Times,serif" font-size="9.00">21783</text>
</g>
<!-- 22040 -->
<g id="node21" class="node">
<title>22040</title>
<ellipse fill="white" stroke="black" cx="182" cy="-238.17" rx="33.47" ry="33.47"/>
<text text-anchor="middle" x="182" y="-235.97" font-family="Times,serif" font-size="9.00">22040</text>
</g>
<!-- 21422 -->
<g id="node31" class="node">
<title>21422</title>
<ellipse fill="white" stroke="black" cx="182" cy="-135.7" rx="33.47" ry="33.47"/>
<text text-anchor="middle" x="182" y="-133.5" font-family="Times,serif" font-size="9.00">21422</text>
</g>
<!-- 22040&#45;&gt;21422 -->
<g id="edge20" class="edge">
<title>22040&#45;&gt;21422</title>
<path fill="none" stroke="red" stroke-width="0.44" stroke-dasharray="1,5" d="M182,-204.83C182,-196.67 182,-187.79 182,-179.22"/>
<polygon fill="red" stroke="red" stroke-width="0.44" points="185.5,-178.98 182,-168.98 178.5,-178.98 185.5,-178.98"/>
</g>
<!-- 15900&#45;&gt;0 -->
<g id="edge13" class="edge">
<title>15900&#45;&gt;0</title>
<path fill="none" stroke="red" stroke-width="0.23" d="M225.39,-308.95C230.33,-294.33 236.17,-277.08 240.8,-263.4"/>
<polygon fill="red" stroke="red" stroke-width="0.23" points="244.18,-264.32 244.07,-253.73 237.55,-262.08 244.18,-264.32"/>
</g>
<!-- 15900&#45;&gt;22040 -->
<g id="edge19" class="edge">
<title>15900&#45;&gt;22040</title>
<path fill="none" stroke="green" stroke-width="0.16" stroke-dasharray="1,5" d="M204.92,-308.95C201.88,-299.69 198.49,-289.37 195.27,-279.58"/>
<polygon fill="green" stroke="green" stroke-width="0.16" points="198.58,-278.43 192.13,-270.02 191.93,-280.61 198.58,-278.43"/>
</g>
<!-- 22430 -->
<g id="node23" class="node">
<title>22430</title>
<ellipse fill="white" stroke="black" cx="266" cy="-135.7" rx="33.47" ry="33.47"/>
<text text-anchor="middle" x="266" y="-133.5" font-family="Times,serif" font-size="9.00">22430</text>
</g>
<!-- 19130 -->
<g id="node34" class="node">
<title>19130</title>
<ellipse fill="white" stroke="black" cx="266" cy="-33.23" rx="33.47" ry="33.47"/>
<text text-anchor="middle" x="266" y="-31.03" font-family="Times,serif" font-size="9.00">19130</text>
</g>
<!-- 22430&#45;&gt;19130 -->
<g id="edge29" class="edge">
<title>22430&#45;&gt;19130</title>
<path fill="none" stroke="green" stroke-width="0.25" stroke-dasharray="1,5" d="M266,-102.36C266,-94.2 266,-85.32 266,-76.75"/>
<polygon fill="green" stroke="green" stroke-width="0.25" points="269.5,-76.52 266,-66.52 262.5,-76.52 269.5,-76.52"/>
</g>
<!-- 14503&#45;&gt;22926 -->
<g id="edge38" class="edge">
<title>14503&#45;&gt;22926</title>
<path fill="none" stroke="red" stroke-width="0.2" d="M207.17,-516.85C200.43,-505.75 192.56,-492.79 185.34,-480.91"/>
<polygon fill="red" stroke="red" stroke-width="0.2" points="188.17,-478.82 179.99,-472.08 182.19,-482.45 188.17,-478.82"/>
</g>
<!-- 14503&#45;&gt;15900 -->
<g id="edge3" class="edge">
<title>14503&#45;&gt;15900</title>
<path fill="none" stroke="green" stroke-width="0.18" d="M222.55,-511.97C221.02,-477.35 218.59,-422.49 216.9,-384.42"/>
<polygon fill="green" stroke="green" stroke-width="0.18" points="220.38,-384 216.44,-374.16 213.39,-384.31 220.38,-384"/>
</g>
<!-- 9914 -->
<g id="node33" class="node">
<title>9914</title>
<ellipse fill="white" stroke="black" cx="281" cy="-443.11" rx="28.98" ry="28.98"/>
<text text-anchor="middle" x="281" y="-440.91" font-family="Times,serif" font-size="9.00">9914</text>
</g>
<!-- 14503&#45;&gt;9914 -->
<g id="edge2" class="edge">
<title>14503&#45;&gt;9914</title>
<path fill="none" stroke="red" stroke-width="0.23" d="M240.03,-516.32C246.87,-504.27 254.89,-490.12 262.02,-477.55"/>
<polygon fill="red" stroke="red" stroke-width="0.23" points="265.14,-479.16 267.03,-468.73 259.05,-475.71 265.14,-479.16"/>
</g>
<!-- 21414 -->
<g id="node27" class="node">
<title>21414</title>
<ellipse fill="white" stroke="black" cx="491" cy="-238.17" rx="33.47" ry="33.47"/>
<text text-anchor="middle" x="491" y="-235.97" font-family="Times,serif" font-size="9.00">21414</text>
</g>
<!-- 17349 -->
<g id="node36" class="node">
<title>17349</title>
<ellipse fill="white" stroke="black" cx="491" cy="-135.7" rx="33.47" ry="33.47"/>
<text text-anchor="middle" x="491" y="-133.5" font-family="Times,serif" font-size="9.00">17349</text>
</g>
<!-- 21414&#45;&gt;17349 -->
<g id="edge16" class="edge">
<title>21414&#45;&gt;17349</title>
<path fill="none" stroke="green" stroke-width="0.41" d="M491,-204.83C491,-196.67 491,-187.79 491,-179.22"/>
<polygon fill="green" stroke="green" stroke-width="0.41" points="494.5,-178.98 491,-168.98 487.5,-178.98 494.5,-178.98"/>
</g>
<!-- 22182 -->
<g id="node28" class="node">
<title>22182</title>
<ellipse fill="white" stroke="black" cx="1115" cy="-852.98" rx="33.47" ry="33.47"/>
<text text-anchor="middle" x="1115" y="-850.78" font-family="Times,serif" font-size="9.00">22182</text>
</g>
<!-- 22182&#45;&gt;21783 -->
<g id="edge24" class="edge">
<title>22182&#45;&gt;21783</title>
<path fill="none" stroke="green" stroke-width="0.29" d="M1115,-819.64C1115,-811.48 1115,-802.6 1115,-794.03"/>
<polygon fill="green" stroke="green" stroke-width="0.29" points="1118.5,-793.79 1115,-783.79 1111.5,-793.79 1118.5,-793.79"/>
</g>
<!-- 9518 -->
<g id="node29" class="node">
<title>9518</title>
<ellipse fill="white" stroke="black" cx="1195" cy="-852.98" rx="28.98" ry="28.98"/>
<text text-anchor="middle" x="1195" y="-850.78" font-family="Times,serif" font-size="9.00">9518</text>
</g>
<!-- 20398 -->
<g id="node30" class="node">
<title>20398</title>
<ellipse fill="white" stroke="black" cx="823" cy="-135.7" rx="33.47" ry="33.47"/>
<text text-anchor="middle" x="823" y="-133.5" font-family="Times,serif" font-size="9.00">20398</text>
</g>
<!-- 21422&#45;&gt;21633 -->
<g id="edge23" class="edge">
<title>21422&#45;&gt;21633</title>
<path fill="none" stroke="red" stroke-width="0.52" stroke-dasharray="1,5" d="M182,-102.36C182,-94.2 182,-85.32 182,-76.75"/>
<polygon fill="red" stroke="red" stroke-width="0.52" points="185.5,-76.52 182,-66.52 178.5,-76.52 185.5,-76.52"/>
</g>
<!-- 21422&#45;&gt;19130 -->
<g id="edge28" class="edge">
<title>21422&#45;&gt;19130</title>
<path fill="none" stroke="green" stroke-width="0.5" d="M202.98,-109.61C213.7,-96.78 226.89,-81.01 238.43,-67.21"/>
<polygon fill="green" stroke="green" stroke-width="0.5" points="241.27,-69.27 245,-59.36 235.9,-64.78 241.27,-69.27"/>
</g>
<!-- 14513 -->
<g id="node32" class="node">
<title>14513</title>
<ellipse fill="white" stroke="black" cx="865" cy="-238.17" rx="33.47" ry="33.47"/>
<text text-anchor="middle" x="865" y="-235.97" font-family="Times,serif" font-size="9.00">14513</text>
</g>
<!-- 14513&#45;&gt;20398 -->
<g id="edge9" class="edge">
<title>14513&#45;&gt;20398</title>
<path fill="none" stroke="green" stroke-width="0.64" d="M852.51,-207.3C848.4,-197.47 843.77,-186.38 839.41,-175.96"/>
<polygon fill="green" stroke="green" stroke-width="0.64" points="842.6,-174.51 835.51,-166.63 836.14,-177.21 842.6,-174.51"/>
</g>
<!-- 9914&#45;&gt;17573 -->
<g id="edge35" class="edge">
<title>9914&#45;&gt;17573</title>
<path fill="none" stroke="red" stroke-width="0.35" d="M291.93,-415.97C296.37,-405.34 301.6,-392.83 306.49,-381.13"/>
<polygon fill="red" stroke="red" stroke-width="0.35" points="309.87,-382.13 310.5,-371.55 303.41,-379.43 309.87,-382.13"/>
</g>
<!-- 22330 -->
<g id="node35" class="node">
<title>22330</title>
<ellipse fill="white" stroke="black" cx="407" cy="-238.17" rx="33.47" ry="33.47"/>
<text text-anchor="middle" x="407" y="-235.97" font-family="Times,serif" font-size="9.00">22330</text>
</g>
<!-- 22330&#45;&gt;17349 -->
<g id="edge26" class="edge">
<title>22330&#45;&gt;17349</title>
<path fill="none" stroke="red" stroke-width="0.34" d="M427.98,-212.08C438.7,-199.25 451.89,-183.48 463.43,-169.68"/>
<polygon fill="red" stroke="red" stroke-width="0.34" points="466.27,-171.74 470,-161.82 460.9,-167.25 466.27,-171.74"/>
</g>
<!-- 15459 -->
<g id="node48" class="node">
<title>15459</title>
<ellipse fill="white" stroke="black" cx="491" cy="-33.23" rx="33.47" ry="33.47"/>
<text text-anchor="middle" x="491" y="-31.03" font-family="Times,serif" font-size="9.00">15459</text>
</g>
<!-- 17349&#45;&gt;15459 -->
<g id="edge6" class="edge">
<title>17349&#45;&gt;15459</title>
<path fill="none" stroke="red" stroke-width="0.39" stroke-dasharray="1,5" d="M491,-102.36C491,-94.2 491,-85.32 491,-76.75"/>
<polygon fill="red" stroke="red" stroke-width="0.39" points="494.5,-76.52 491,-66.52 487.5,-76.52 494.5,-76.52"/>
</g>
<!-- 12012 -->
<g id="node53" class="node">
<title>12012</title>
<ellipse fill="white" stroke="black" cx="617" cy="-33.23" rx="33.47" ry="33.47"/>
<text text-anchor="middle" x="617" y="-31.03" font-family="Times,serif" font-size="9.00">12012</text>
</g>
<!-- 17349&#45;&gt;12012 -->
<g id="edge8" class="edge">
<title>17349&#45;&gt;12012</title>
<path fill="none" stroke="red" stroke-width="0.67" stroke-dasharray="1,5" d="M516.5,-114.37C535.67,-99.08 562.13,-77.99 583.08,-61.28"/>
<polygon fill="red" stroke="red" stroke-width="0.67" points="585.47,-63.85 591.11,-54.88 581.11,-58.38 585.47,-63.85"/>
</g>
<!-- 19525&#45;&gt;12012 -->
<g id="edge11" class="edge">
<title>19525&#45;&gt;12012</title>
<path fill="none" stroke="green" stroke-width="0.36" d="M646.51,-104.83C642.4,-95 637.77,-83.92 633.41,-73.49"/>
<polygon fill="green" stroke="green" stroke-width="0.36" points="636.6,-72.04 629.51,-64.16 630.14,-74.74 636.6,-72.04"/>
</g>
<!-- 20935 -->
<g id="node38" class="node">
<title>20935</title>
<ellipse fill="white" stroke="black" cx="1275" cy="-852.98" rx="33.47" ry="33.47"/>
<text text-anchor="middle" x="1275" y="-850.78" font-family="Times,serif" font-size="9.00">20935</text>
</g>
<!-- 20455 -->
<g id="node50" class="node">
<title>20455</title>
<ellipse fill="white" stroke="black" cx="1317" cy="-750.51" rx="33.47" ry="33.47"/>
<text text-anchor="middle" x="1317" y="-748.31" font-family="Times,serif" font-size="9.00">20455</text>
</g>
<!-- 20935&#45;&gt;20455 -->
<g id="edge12" class="edge">
<title>20935&#45;&gt;20455</title>
<path fill="none" stroke="green" stroke-width="0.8" stroke-dasharray="1,5" d="M1287.49,-822.11C1291.6,-812.28 1296.23,-801.19 1300.59,-790.77"/>
<polygon fill="green" stroke="green" stroke-width="0.8" points="1303.86,-792.02 1304.49,-781.44 1297.4,-789.32 1303.86,-792.02"/>
</g>
<!-- 22597 -->
<g id="node39" class="node">
<title>22597</title>
<ellipse fill="white" stroke="black" cx="575" cy="-238.17" rx="33.47" ry="33.47"/>
<text text-anchor="middle" x="575" y="-235.97" font-family="Times,serif" font-size="9.00">22597</text>
</g>
<!-- 22597&#45;&gt;19525 -->
<g id="edge34" class="edge">
<title>22597&#45;&gt;19525</title>
<path fill="none" stroke="green" stroke-width="0.38" d="M595.98,-212.08C606.7,-199.25 619.89,-183.48 631.43,-169.68"/>
<polygon fill="green" stroke="green" stroke-width="0.38" points="634.27,-171.74 638,-161.82 628.9,-167.25 634.27,-171.74"/>
</g>
<!-- 21833&#45;&gt;14503 -->
<g id="edge18" class="edge">
<title>21833&#45;&gt;14503</title>
<path fill="none" stroke="green" stroke-width="0.47" d="M203.25,-616.08C205.95,-607.01 208.96,-596.95 211.82,-587.36"/>
<polygon fill="green" stroke="green" stroke-width="0.47" points="215.23,-588.19 214.73,-577.61 208.52,-586.19 215.23,-588.19"/>
</g>
<!-- 22853&#45;&gt;22597 -->
<g id="edge37" class="edge">
<title>22853&#45;&gt;22597</title>
<path fill="none" stroke="red" stroke-width="0.79" d="M432.5,-318.47C437.79,-314.54 443.45,-310.66 449,-307.4 484.05,-286.88 497.95,-291.93 533,-271.4 535.69,-269.83 538.4,-268.11 541.09,-266.3"/>
<polygon fill="red" stroke="red" stroke-width="0.79" points="543.36,-268.98 549.5,-260.34 539.31,-263.27 543.36,-268.98"/>
</g>
<!-- 15308 -->
<g id="node43" class="node">
<title>15308</title>
<ellipse fill="white" stroke="black" cx="1443" cy="-852.98" rx="33.47" ry="33.47"/>
<text text-anchor="middle" x="1443" y="-850.78" font-family="Times,serif" font-size="9.00">15308</text>
</g>
<!-- 18637 -->
<g id="node44" class="node">
<title>18637</title>
<ellipse fill="white" stroke="black" cx="781" cy="-238.17" rx="33.47" ry="33.47"/>
<text text-anchor="middle" x="781" y="-235.97" font-family="Times,serif" font-size="9.00">18637</text>
</g>
<!-- 18637&#45;&gt;20398 -->
<g id="edge25" class="edge">
<title>18637&#45;&gt;20398</title>
<path fill="none" stroke="green" stroke-width="0.34" d="M793.49,-207.3C797.6,-197.47 802.23,-186.38 806.59,-175.96"/>
<polygon fill="green" stroke="green" stroke-width="0.34" points="809.86,-177.21 810.49,-166.63 803.4,-174.51 809.86,-177.21"/>
</g>
<!-- 18637&#45;&gt;19525 -->
<g id="edge5" class="edge">
<title>18637&#45;&gt;19525</title>
<path fill="none" stroke="red" stroke-width="0.17" d="M755.72,-216.35C737.32,-201.2 712.22,-180.53 692.2,-164.04"/>
<polygon fill="red" stroke="red" stroke-width="0.17" points="694.19,-161.15 684.25,-157.49 689.74,-166.55 694.19,-161.15"/>
</g>
<!-- 19935 -->
<g id="node46" class="node">
<title>19935</title>
<ellipse fill="white" stroke="black" cx="1527" cy="-852.98" rx="33.47" ry="33.47"/>
<text text-anchor="middle" x="1527" y="-850.78" font-family="Times,serif" font-size="9.00">19935</text>
</g>
<!-- 21474 -->
<g id="node47" class="node">
<title>21474</title>
<ellipse fill="white" stroke="black" cx="1611" cy="-852.98" rx="33.47" ry="33.47"/>
<text text-anchor="middle" x="1611" y="-850.78" font-family="Times,serif" font-size="9.00">21474</text>
</g>
<!-- 22498 -->
<g id="node49" class="node">
<title>22498</title>
<ellipse fill="white" stroke="black" cx="659" cy="-340.64" rx="33.47" ry="33.47"/>
<text text-anchor="middle" x="659" y="-338.44" font-family="Times,serif" font-size="9.00">22498</text>
</g>
<!-- 18922 -->
<g id="node52" class="node">
<title>18922</title>
<ellipse fill="white" stroke="black" cx="659" cy="-238.17" rx="33.47" ry="33.47"/>
<text text-anchor="middle" x="659" y="-235.97" font-family="Times,serif" font-size="9.00">18922</text>
</g>
<!-- 22498&#45;&gt;18922 -->
<g id="edge32" class="edge">
<title>22498&#45;&gt;18922</title>
<path fill="none" stroke="green" stroke-width="0.31" stroke-dasharray="1,5" d="M659,-307.3C659,-299.14 659,-290.26 659,-281.69"/>
<polygon fill="green" stroke="green" stroke-width="0.31" points="662.5,-281.45 659,-271.45 655.5,-281.45 662.5,-281.45"/>
</g>
<!-- 18409 -->
<g id="node51" class="node">
<title>18409</title>
<ellipse fill="white" stroke="black" cx="575" cy="-340.64" rx="33.47" ry="33.47"/>
<text text-anchor="middle" x="575" y="-338.44" font-family="Times,serif" font-size="9.00">18409</text>
</g>
<!-- 18409&#45;&gt;18922 -->
<g id="edge21" class="edge">
<title>18409&#45;&gt;18922</title>
<path fill="none" stroke="green" stroke-width="0.17" d="M595.98,-314.54C606.7,-301.72 619.89,-285.95 631.43,-272.15"/>
<polygon fill="green" stroke="green" stroke-width="0.17" points="634.27,-274.21 638,-264.29 628.9,-269.72 634.27,-274.21"/>
</g>
<!-- 18922&#45;&gt;19525 -->
<g id="edge7" class="edge">
<title>18922&#45;&gt;19525</title>
<path fill="none" stroke="red" stroke-width="0.61" d="M659,-204.83C659,-196.67 659,-187.79 659,-179.22"/>
<polygon fill="red" stroke="red" stroke-width="0.61" points="662.5,-178.98 659,-168.98 655.5,-178.98 662.5,-178.98"/>
</g>
<!-- 12276 -->
<g id="node54" class="node">
<title>12276</title>
<ellipse fill="white" stroke="black" cx="1695" cy="-852.98" rx="33.47" ry="33.47"/>
<text text-anchor="middle" x="1695" y="-850.78" font-family="Times,serif" font-size="9.00">12276</text>
</g>
<!-- 17654 -->
<g id="node55" class="node">
<title>17654</title>
<ellipse fill="white" stroke="black" cx="361" cy="-443.11" rx="33.47" ry="33.47"/>
<text text-anchor="middle" x="361" y="-440.91" font-family="Times,serif" font-size="9.00">17654</text>
</g>
<!-- 17654&#45;&gt;17573 -->
<g id="edge22" class="edge">
<title>17654&#45;&gt;17573</title>
<path fill="none" stroke="red" stroke-width="0.15" d="M349.5,-411.69C345.89,-402.15 341.85,-391.47 338.03,-381.38"/>
<polygon fill="red" stroke="red" stroke-width="0.15" points="341.28,-380.07 334.47,-371.95 334.73,-382.54 341.28,-380.07"/>
</g>
<!-- 19710 -->
<g id="node56" class="node">
<title>19710</title>
<ellipse fill="white" stroke="black" cx="1779" cy="-852.98" rx="33.47" ry="33.47"/>
<text text-anchor="middle" x="1779" y="-850.78" font-family="Times,serif" font-size="9.00">19710</text>
</g>
<!-- 23039 -->
<g id="node57" class="node">
<title>23039</title>
<ellipse fill="white" stroke="black" cx="1359" cy="-852.98" rx="33.47" ry="33.47"/>
<text text-anchor="middle" x="1359" y="-850.78" font-family="Times,serif" font-size="9.00">23039</text>
</g>
<!-- 23039&#45;&gt;20455 -->
<g id="edge40" class="edge">
<title>23039&#45;&gt;20455</title>
<path fill="none" stroke="green" stroke-width="0.5" d="M1346.51,-822.11C1342.4,-812.28 1337.77,-801.19 1333.41,-790.77"/>
<polygon fill="green" stroke="green" stroke-width="0.5" points="1336.6,-789.32 1329.51,-781.44 1330.14,-792.02 1336.6,-789.32"/>
</g>
</g>
</svg>
